# xmcd CD database file
#
# Track frame offsets:
#	150
#	10904
#	22000
#	33212
#	44447
#	55711
#	67046
#	78702
#	90552
#	103642
#	115829
#	128103
#	140431
#	152409
#	165013
#	177633
#	190416
#	203240
#	216127
#
# Disc length: 3056 seconds
#
# Revision: 0
# Processed by: cddbd v1.5.2PL0 Copyright (c) Steve Scherf et al.
# Submitted via: CDex 1.70beta2
#
DISCID=000bee13
DTITLE=Ella Fitzgerald - The Legends Of Jazz
DYEAR=1900
DGENRE=Jazz
TTITLE0=Didja Mean It
TTITLE1=Devoting My Time To You
TTITLE2=When I Get Low I Get High
TTITLE3=Flying Home
TTITLE4=Vote For MR Rhythm
TTITLE5=Oh, Yes, Take Another Guess
TTITLE6=Ill Chase The Blues Away
TTITLE7=A Tisket, A Tasket
TTITLE8=Organ Grinder's Swing
TTITLE9=Billy
TTITLE10=Mama Come Home
TTITLE11=I'm Gettin Mighty Lonesome For You
TTITLE12=Wake Up And Live
TTITLE13=Ella!
TTITLE14=Make Love To Me
TTITLE15=Strictly From Dixie
TTITLE16=It's Slumbertime Along The Swanee
TTITLE17=Saving Myself For You
TTITLE18=Cow Cow Boogie
EXTD=
EXTT0=
EXTT1=
EXTT2=
EXTT3=
EXTT4=
EXTT5=
EXTT6=
EXTT7=
EXTT8=
EXTT9=
EXTT10=
EXTT11=
EXTT12=
EXTT13=
EXTT14=
EXTT15=
EXTT16=
EXTT17=
EXTT18=
PLAYORDER=
